<svg width="12" height="12" viewBox="0 0 12 12" fill="none" xmlns="http://www.w3.org/2000/svg">
<path d="M6.00032 5.98328C5.26699 5.98328 4.66699 5.74994 4.20032 5.28328C3.73366 4.81661 3.50032 4.21661 3.50032 3.48328C3.50032 2.74994 3.73366 2.14994 4.20032 1.68328C4.66699 1.21661 5.26699 0.983276 6.00032 0.983276C6.73366 0.983276 7.33366 1.21661 7.80032 1.68328C8.26699 2.14994 8.50032 2.74994 8.50032 3.48328C8.50032 4.21661 8.26699 4.81661 7.80032 5.28328C7.33366 5.74994 6.73366 5.98328 6.00032 5.98328ZM0.666992 11.3333V9.76661C0.666992 9.34439 0.772548 8.98327 0.983659 8.68328C1.19477 8.38328 1.46699 8.1555 1.80033 7.99994C2.54477 7.66661 3.25866 7.41661 3.94199 7.24994C4.62532 7.08328 5.31144 6.99994 6.00032 6.99994C6.68921 6.99994 7.37255 7.08605 8.05032 7.25828C8.7281 7.4305 9.43877 7.6788 10.1823 8.00317C10.5301 8.16013 10.809 8.38772 11.0188 8.68594C11.2287 8.98416 11.3337 9.34439 11.3337 9.76661V11.3333H0.666992ZM1.66699 10.3333H10.3337V9.76661C10.3337 9.58883 10.2809 9.41939 10.1753 9.25828C10.0698 9.09716 9.93921 8.97772 9.78366 8.89994C9.07255 8.5555 8.42255 8.31939 7.83366 8.19161C7.24477 8.06383 6.63366 7.99994 6.00032 7.99994C5.36699 7.99994 4.75032 8.06383 4.15032 8.19161C3.55032 8.31939 2.90032 8.5555 2.20033 8.89994C2.04477 8.97772 1.91699 9.09716 1.81699 9.25828C1.71699 9.41939 1.66699 9.58883 1.66699 9.76661V10.3333ZM6.00032 4.98328C6.43366 4.98328 6.79199 4.84161 7.07532 4.55828C7.35866 4.27494 7.50032 3.91661 7.50032 3.48328C7.50032 3.04994 7.35866 2.69161 7.07532 2.40828C6.79199 2.12494 6.43366 1.98328 6.00032 1.98328C5.56699 1.98328 5.20866 2.12494 4.92532 2.40828C4.64199 2.69161 4.50032 3.04994 4.50032 3.48328C4.50032 3.91661 4.64199 4.27494 4.92532 4.55828C5.20866 4.84161 5.56699 4.98328 6.00032 4.98328Z" fill="white"/>
</svg>
